<svg xmlns="http://www.w3.org/2000/svg" viewBox="0 0 1600 900" role="img" aria-label="Abstract academic visual">
  <defs>
    <linearGradient id="bg" x1="0" y1="0" x2="1" y2="1"><stop offset="0" stop-color="#0d2438"/><stop offset=".62" stop-color="#23506c"/><stop offset="1" stop-color="#07101c"/></linearGradient>
    <radialGradient id="glow" cx="24%" cy="18%" r="75%"><stop offset="0" stop-color="#fff8eb" stop-opacity=".22"/><stop offset=".45" stop-color="#6a9fb2" stop-opacity=".16"/><stop offset="1" stop-color="#0d2438" stop-opacity="0"/></radialGradient>
    <pattern id="grid" width="64" height="64" patternUnits="userSpaceOnUse"><path d="M64 0H0V64" fill="none" stroke="#fff8eb" stroke-opacity=".065" stroke-width="1"/></pattern>
  </defs>
  <rect width="1600" height="900" fill="url(#bg)"/>
  <rect width="1600" height="900" fill="url(#grid)"/>
  <rect width="1600" height="900" fill="url(#glow)"/>
  <path d="M120.0 598.5 L346.7 664.2 L573.3 556.5 L800.0 406.7 L1026.7 397.6 L1253.3 540.2 L1480.0 660.6" fill="none" stroke="#6a9fb2" stroke-width="6" stroke-linecap="round" opacity=".44"/>
  <path d="M120.0 613.9 L314.3 455.7 L508.6 378.4 L702.9 476.2 L897.1 629.9 L1091.4 651.9 L1285.7 515.5 L1480.0 387.0" fill="none" stroke="#d0a348" stroke-width="4" stroke-linecap="round" opacity=".46"/>
  <path d="M240 620 L570 260 L900 620 Z" fill="none" stroke="#d0a348" stroke-width="5" opacity=".45"/><path d="M640 640 L1040 260 L1350 640 Z" fill="none" stroke="#fff8eb" stroke-width="3" opacity=".25"/>
  <path d="M899.5 162.8 L1423.7 162.8" stroke="#fff8eb" stroke-width="2" opacity=".30"/><path d="M883.6 236.0 L1413.7 246.1" stroke="#fff8eb" stroke-width="2" opacity=".30"/><path d="M865.5 288.9 L1412.9 299.8" stroke="#fff8eb" stroke-width="2" opacity=".30"/><path d="M856.2 331.8 L1421.5 333.5" stroke="#fff8eb" stroke-width="2" opacity=".30"/><path d="M861.3 384.1 L1436.7 375.0" stroke="#fff8eb" stroke-width="2" opacity=".30"/><path d="M877.8 456.5 L1452.9 445.0" stroke="#fff8eb" stroke-width="2" opacity=".30"/><path d="M895.6 541.3 L1464.7 538.0" stroke="#fff8eb" stroke-width="2" opacity=".30"/><path d="M904.0 619.4 L1467.8 627.3" stroke="#fff8eb" stroke-width="2" opacity=".30"/><path d="M897.7 677.8 L1461.2 689.7" stroke="#fff8eb" stroke-width="2" opacity=".30"/>
  <circle cx="208.8" cy="739.3" r="3" fill="#d0a348" opacity="0.24"/><circle cx="560.9" cy="475.3" r="9" fill="#d0a348" opacity="0.35"/><circle cx="949.8" cy="152.7" r="8" fill="#d0a348" opacity="0.20"/><circle cx="1123.2" cy="430.0" r="3" fill="#d0a348" opacity="0.38"/><circle cx="356.0" cy="235.3" r="3" fill="#d0a348" opacity="0.39"/><circle cx="208.8" cy="499.3" r="5" fill="#d0a348" opacity="0.31"/><circle cx="650.2" cy="667.3" r="4" fill="#d0a348" opacity="0.44"/><circle cx="650.2" cy="414.0" r="7" fill="#d0a348" opacity="0.23"/><circle cx="1175.7" cy="483.3" r="6" fill="#d0a348" opacity="0.23"/><circle cx="1107.4" cy="648.7" r="7" fill="#d0a348" opacity="0.39"/><circle cx="849.9" cy="491.3" r="9" fill="#d0a348" opacity="0.20"/><circle cx="1370.2" cy="134.0" r="4" fill="#d0a348" opacity="0.34"/><circle cx="849.9" cy="246.0" r="6" fill="#d0a348" opacity="0.22"/><circle cx="214.1" cy="603.3" r="3" fill="#d0a348" opacity="0.29"/><circle cx="760.6" cy="734.0" r="10" fill="#d0a348" opacity="0.41"/><circle cx="377.0" cy="614.0" r="9" fill="#d0a348" opacity="0.32"/><circle cx="897.2" cy="211.3" r="3" fill="#d0a348" opacity="0.29"/><circle cx="1228.3" cy="448.7" r="3" fill="#d0a348" opacity="0.31"/>
  <circle cx="1230" cy="250" r="210" fill="none" stroke="#fff8eb" stroke-width="2" opacity=".16"/>
  <circle cx="1230" cy="250" r="126" fill="none" stroke="#d0a348" stroke-width="2" opacity=".18"/>
</svg>