<svg xmlns="http://www.w3.org/2000/svg" viewBox="0 0 1600 900" role="img" aria-label="Abstract academic visual">
  <defs>
    <linearGradient id="bg" x1="0" y1="0" x2="1" y2="1"><stop offset="0" stop-color="#0d2438"/><stop offset=".62" stop-color="#23506c"/><stop offset="1" stop-color="#07101c"/></linearGradient>
    <radialGradient id="glow" cx="24%" cy="18%" r="75%"><stop offset="0" stop-color="#fff8eb" stop-opacity=".22"/><stop offset=".45" stop-color="#6a9fb2" stop-opacity=".16"/><stop offset="1" stop-color="#0d2438" stop-opacity="0"/></radialGradient>
    <pattern id="grid" width="64" height="64" patternUnits="userSpaceOnUse"><path d="M64 0H0V64" fill="none" stroke="#fff8eb" stroke-opacity=".065" stroke-width="1"/></pattern>
  </defs>
  <rect width="1600" height="900" fill="url(#bg)"/>
  <rect width="1600" height="900" fill="url(#grid)"/>
  <rect width="1600" height="900" fill="url(#glow)"/>
  <path d="M120.0 582.1 L346.7 425.0 L573.3 386.2 L800.0 513.0 L1026.7 650.8 L1253.3 631.5 L1480.0 478.6" fill="none" stroke="#6a9fb2" stroke-width="6" stroke-linecap="round" opacity=".44"/>
  <path d="M120.0 378.9 L314.3 451.4 L508.6 610.0 L702.9 661.3 L897.1 542.7 L1091.4 398.8 L1285.7 405.2 L1480.0 554.0" fill="none" stroke="#d0a348" stroke-width="4" stroke-linecap="round" opacity=".46"/>
  <path d="M180 690 C430 310 760 300 1120 660" fill="none" stroke="#d0a348" stroke-width="7" stroke-linecap="round" opacity=".72"/><path d="M180 690 C430 310 760 300 1120 660" fill="none" stroke="#fff8eb" stroke-width="2" stroke-dasharray="12 18" opacity=".58"/>
  <path d="M859.8 138.2 L1455.1 138.2" stroke="#fff8eb" stroke-width="2" opacity=".30"/><path d="M875.2 192.0 L1465.8 202.1" stroke="#fff8eb" stroke-width="2" opacity=".30"/><path d="M893.5 266.1 L1467.5 277.0" stroke="#fff8eb" stroke-width="2" opacity=".30"/><path d="M903.6 351.1 L1459.6 352.8" stroke="#fff8eb" stroke-width="2" opacity=".30"/><path d="M899.4 427.8 L1444.8 418.7" stroke="#fff8eb" stroke-width="2" opacity=".30"/><path d="M883.4 484.4 L1428.4 472.9" stroke="#fff8eb" stroke-width="2" opacity=".30"/><path d="M865.4 527.8 L1416.0 524.5" stroke="#fff8eb" stroke-width="2" opacity=".30"/><path d="M856.2 576.9 L1412.0 584.8" stroke="#fff8eb" stroke-width="2" opacity=".30"/><path d="M861.4 645.4 L1417.8 657.3" stroke="#fff8eb" stroke-width="2" opacity=".30"/>
  <circle cx="1470.0" cy="675.3" r="4" fill="#d0a348" opacity="0.23"/><circle cx="172.0" cy="411.3" r="5" fill="#d0a348" opacity="0.41"/><circle cx="1207.3" cy="566.0" r="7" fill="#d0a348" opacity="0.37"/><circle cx="513.6" cy="507.3" r="10" fill="#d0a348" opacity="0.25"/><circle cx="539.9" cy="355.3" r="6" fill="#d0a348" opacity="0.26"/><circle cx="235.1" cy="446.0" r="9" fill="#d0a348" opacity="0.34"/><circle cx="687.0" cy="222.0" r="9" fill="#d0a348" opacity="0.28"/><circle cx="613.5" cy="299.3" r="8" fill="#d0a348" opacity="0.27"/><circle cx="865.7" cy="171.3" r="7" fill="#d0a348" opacity="0.28"/><circle cx="928.7" cy="158.0" r="7" fill="#d0a348" opacity="0.29"/><circle cx="786.9" cy="555.3" r="6" fill="#d0a348" opacity="0.20"/><circle cx="1244.0" cy="280.7" r="11" fill="#d0a348" opacity="0.32"/><circle cx="723.8" cy="235.3" r="10" fill="#d0a348" opacity="0.43"/><circle cx="1028.6" cy="288.7" r="4" fill="#d0a348" opacity="0.30"/><circle cx="913.0" cy="344.7" r="9" fill="#d0a348" opacity="0.23"/><circle cx="613.5" cy="382.0" r="5" fill="#d0a348" opacity="0.27"/><circle cx="792.1" cy="726.0" r="10" fill="#d0a348" opacity="0.28"/><circle cx="350.7" cy="318.0" r="5" fill="#d0a348" opacity="0.26"/>
  <circle cx="1230" cy="250" r="210" fill="none" stroke="#fff8eb" stroke-width="2" opacity=".16"/>
  <circle cx="1230" cy="250" r="126" fill="none" stroke="#d0a348" stroke-width="2" opacity=".18"/>
</svg>