<svg xmlns="http://www.w3.org/2000/svg" viewBox="0 0 1600 900" role="img" aria-label="Abstract academic visual">
  <defs>
    <linearGradient id="bg" x1="0" y1="0" x2="1" y2="1"><stop offset="0" stop-color="#0f1b2b"/><stop offset=".62" stop-color="#173755"/><stop offset="1" stop-color="#07101c"/></linearGradient>
    <radialGradient id="glow" cx="24%" cy="18%" r="75%"><stop offset="0" stop-color="#f6f1e8" stop-opacity=".22"/><stop offset=".45" stop-color="#2e6f94" stop-opacity=".16"/><stop offset="1" stop-color="#0f1b2b" stop-opacity="0"/></radialGradient>
    <pattern id="grid" width="64" height="64" patternUnits="userSpaceOnUse"><path d="M64 0H0V64" fill="none" stroke="#f6f1e8" stroke-opacity=".065" stroke-width="1"/></pattern>
  </defs>
  <rect width="1600" height="900" fill="url(#bg)"/>
  <rect width="1600" height="900" fill="url(#grid)"/>
  <rect width="1600" height="900" fill="url(#glow)"/>
  <path d="M120.0 512.1 L346.7 650.4 L573.3 632.1 L800.0 479.5 L1026.7 378.7 L1253.3 452.7 L1480.0 611.2" fill="none" stroke="#2e6f94" stroke-width="6" stroke-linecap="round" opacity=".44"/>
  <path d="M120.0 661.5 L314.3 543.6 L508.6 399.3 L702.9 404.7 L897.1 553.1 L1091.4 663.6 L1285.7 601.4 L1480.0 442.3" fill="none" stroke="#b88a3a" stroke-width="4" stroke-linecap="round" opacity=".46"/>
  <path d="M240 620 L570 260 L900 620 Z" fill="none" stroke="#b88a3a" stroke-width="5" opacity=".45"/><path d="M640 640 L1040 260 L1350 640 Z" fill="none" stroke="#f6f1e8" stroke-width="3" opacity=".25"/>
  <path d="M899.5 162.8 L1423.7 162.8" stroke="#f6f1e8" stroke-width="2" opacity=".30"/><path d="M883.6 236.0 L1413.7 246.1" stroke="#f6f1e8" stroke-width="2" opacity=".30"/><path d="M865.5 288.9 L1412.9 299.8" stroke="#f6f1e8" stroke-width="2" opacity=".30"/><path d="M856.2 331.8 L1421.5 333.5" stroke="#f6f1e8" stroke-width="2" opacity=".30"/><path d="M861.3 384.1 L1436.6 375.0" stroke="#f6f1e8" stroke-width="2" opacity=".30"/><path d="M877.8 456.5 L1452.9 445.0" stroke="#f6f1e8" stroke-width="2" opacity=".30"/><path d="M895.6 541.3 L1464.7 537.9" stroke="#f6f1e8" stroke-width="2" opacity=".30"/><path d="M904.0 619.4 L1467.8 627.3" stroke="#f6f1e8" stroke-width="2" opacity=".30"/><path d="M897.8 677.8 L1461.3 689.7" stroke="#f6f1e8" stroke-width="2" opacity=".30"/>
  <circle cx="1054.9" cy="627.3" r="7" fill="#b88a3a" opacity="0.30"/><circle cx="140.5" cy="550.0" r="3" fill="#b88a3a" opacity="0.38"/><circle cx="1086.4" cy="787.3" r="6" fill="#b88a3a" opacity="0.46"/><circle cx="1254.5" cy="211.3" r="5" fill="#b88a3a" opacity="0.20"/><circle cx="1186.2" cy="246.0" r="8" fill="#b88a3a" opacity="0.41"/><circle cx="1102.2" cy="427.3" r="9" fill="#b88a3a" opacity="0.22"/><circle cx="1301.8" cy="686.0" r="8" fill="#b88a3a" opacity="0.22"/><circle cx="923.5" cy="307.3" r="11" fill="#b88a3a" opacity="0.40"/><circle cx="1154.7" cy="152.7" r="5" fill="#b88a3a" opacity="0.24"/><circle cx="834.2" cy="747.3" r="7" fill="#b88a3a" opacity="0.25"/><circle cx="1238.8" cy="350.0" r="8" fill="#b88a3a" opacity="0.38"/><circle cx="1149.5" cy="336.7" r="5" fill="#b88a3a" opacity="0.31"/><circle cx="997.1" cy="398.0" r="5" fill="#b88a3a" opacity="0.27"/><circle cx="1464.7" cy="166.0" r="10" fill="#b88a3a" opacity="0.42"/><circle cx="329.7" cy="211.3" r="6" fill="#b88a3a" opacity="0.42"/><circle cx="398.0" cy="291.3" r="8" fill="#b88a3a" opacity="0.33"/><circle cx="755.3" cy="318.0" r="10" fill="#b88a3a" opacity="0.35"/><circle cx="1265.1" cy="483.3" r="10" fill="#b88a3a" opacity="0.26"/>
  <circle cx="1230" cy="250" r="210" fill="none" stroke="#f6f1e8" stroke-width="2" opacity=".16"/>
  <circle cx="1230" cy="250" r="126" fill="none" stroke="#b88a3a" stroke-width="2" opacity=".18"/>
</svg>