<svg xmlns="http://www.w3.org/2000/svg" viewBox="0 0 1600 900" role="img" aria-label="Abstract academic visual">
  <defs>
    <linearGradient id="bg" x1="0" y1="0" x2="1" y2="1"><stop offset="0" stop-color="#10243d"/><stop offset=".62" stop-color="#1d3f5f"/><stop offset="1" stop-color="#07101c"/></linearGradient>
    <radialGradient id="glow" cx="24%" cy="18%" r="75%"><stop offset="0" stop-color="#fbf8f1" stop-opacity=".22"/><stop offset=".45" stop-color="#5b8fa8" stop-opacity=".16"/><stop offset="1" stop-color="#10243d" stop-opacity="0"/></radialGradient>
    <pattern id="grid" width="64" height="64" patternUnits="userSpaceOnUse"><path d="M64 0H0V64" fill="none" stroke="#fbf8f1" stroke-opacity=".065" stroke-width="1"/></pattern>
  </defs>
  <rect width="1600" height="900" fill="url(#bg)"/>
  <rect width="1600" height="900" fill="url(#grid)"/>
  <rect width="1600" height="900" fill="url(#glow)"/>
  <path d="M120.0 588.1 L346.7 665.6 L573.3 567.9 L800.0 414.2 L1026.7 392.0 L1253.3 528.3 L1480.0 656.9" fill="none" stroke="#5b8fa8" stroke-width="6" stroke-linecap="round" opacity=".44"/>
  <path d="M120.0 622.7 L314.3 466.5 L508.6 378.0 L702.9 465.1 L897.1 621.6 L1091.4 656.6 L1285.7 527.4 L1480.0 391.6" fill="none" stroke="#c09a52" stroke-width="4" stroke-linecap="round" opacity=".46"/>
  <rect x="180" y="220" width="140" height="92" rx="14" fill="#fbf8f1" opacity="0.18"/><rect x="360" y="308" width="140" height="92" rx="14" fill="#fbf8f1" opacity="0.20"/><rect x="540" y="220" width="140" height="92" rx="14" fill="#fbf8f1" opacity="0.23"/><rect x="720" y="308" width="140" height="92" rx="14" fill="#fbf8f1" opacity="0.26"/><rect x="900" y="220" width="140" height="92" rx="14" fill="#fbf8f1" opacity="0.28"/>
  <path d="M900.7 161.1 L1425.8 161.1" stroke="#fbf8f1" stroke-width="2" opacity=".30"/><path d="M885.7 236.0 L1414.7 246.1" stroke="#fbf8f1" stroke-width="2" opacity=".30"/><path d="M867.3 290.6 L1412.4 301.5" stroke="#fbf8f1" stroke-width="2" opacity=".30"/><path d="M856.5 333.7 L1419.7 335.4" stroke="#fbf8f1" stroke-width="2" opacity=".30"/><path d="M860.0 384.4 L1434.1 375.3" stroke="#fbf8f1" stroke-width="2" opacity=".30"/><path d="M875.7 455.0 L1450.6 443.5" stroke="#fbf8f1" stroke-width="2" opacity=".30"/><path d="M893.9 539.4 L1463.4 536.0" stroke="#fbf8f1" stroke-width="2" opacity=".30"/><path d="M903.7 618.9 L1468.0 626.7" stroke="#fbf8f1" stroke-width="2" opacity=".30"/><path d="M899.1 679.2 L1462.8 691.0" stroke="#fbf8f1" stroke-width="2" opacity=".30"/>
  <circle cx="198.3" cy="502.0" r="9" fill="#c09a52" opacity="0.19"/><circle cx="156.3" cy="550.0" r="6" fill="#c09a52" opacity="0.45"/><circle cx="1428.0" cy="550.0" r="4" fill="#c09a52" opacity="0.36"/><circle cx="1060.1" cy="699.3" r="9" fill="#c09a52" opacity="0.20"/><circle cx="776.4" cy="232.7" r="7" fill="#c09a52" opacity="0.37"/><circle cx="587.2" cy="678.0" r="4" fill="#c09a52" opacity="0.42"/><circle cx="624.0" cy="296.7" r="9" fill="#c09a52" opacity="0.32"/><circle cx="1044.4" cy="592.7" r="3" fill="#c09a52" opacity="0.32"/><circle cx="1296.6" cy="651.3" r="9" fill="#c09a52" opacity="0.23"/><circle cx="597.7" cy="163.3" r="6" fill="#c09a52" opacity="0.21"/><circle cx="429.5" cy="427.3" r="7" fill="#c09a52" opacity="0.28"/><circle cx="902.5" cy="438.0" r="8" fill="#c09a52" opacity="0.41"/><circle cx="997.1" cy="142.0" r="7" fill="#c09a52" opacity="0.24"/><circle cx="997.1" cy="160.7" r="9" fill="#c09a52" opacity="0.28"/><circle cx="1291.3" cy="462.0" r="9" fill="#c09a52" opacity="0.26"/><circle cx="371.7" cy="192.7" r="9" fill="#c09a52" opacity="0.23"/><circle cx="1249.3" cy="256.7" r="7" fill="#c09a52" opacity="0.37"/><circle cx="497.8" cy="222.0" r="6" fill="#c09a52" opacity="0.38"/>
  <circle cx="1230" cy="250" r="210" fill="none" stroke="#fbf8f1" stroke-width="2" opacity=".16"/>
  <circle cx="1230" cy="250" r="126" fill="none" stroke="#c09a52" stroke-width="2" opacity=".18"/>
</svg>