<svg xmlns="http://www.w3.org/2000/svg" viewBox="0 0 1600 900" role="img" aria-label="Abstract academic visual">
  <defs><linearGradient id="bg" x1="0" y1="0" x2="1" y2="1"><stop offset="0" stop-color="#0f1b2b"/><stop offset=".65" stop-color="#173755"/><stop offset="1" stop-color="#07101c"/></linearGradient><pattern id="grid" width="64" height="64" patternUnits="userSpaceOnUse"><path d="M64 0H0V64" fill="none" stroke="#fbf8f1" stroke-opacity=".07"/></pattern><radialGradient id="glow" cx="22%" cy="18%" r="70%"><stop offset="0" stop-color="#fbf8f1" stop-opacity=".22"/><stop offset="1" stop-color="#0f1b2b" stop-opacity="0"/></radialGradient></defs>
  <rect width="1600" height="900" fill="url(#bg)"/><rect width="1600" height="900" fill="url(#grid)"/><rect width="1600" height="900" fill="url(#glow)"/>
  <path d="M230 650 C430 475 620 475 800 650" fill="none" stroke="#b88a3a" stroke-width="6" opacity=".56"/><path d="M820 650 C995 430 1195 450 1360 650" fill="none" stroke="#fbf8f1" stroke-width="5" opacity=".28"/><circle cx="1160" cy="290" r="120" fill="none" stroke="#b88a3a" stroke-width="3" opacity=".24"/><path d="M140 250.0 C430 246.3 705 289.9 1060 247.3 S1370 252.4 1460 270.0" fill="none" stroke="#b88a3a" stroke-width="3" opacity=".38" stroke-linecap="round"/><path d="M140 360.0 C430 307.6 705 379.5 1060 316.0 S1370 394.9 1460 380.0" fill="none" stroke="#2e6f94" stroke-width="4" opacity=".38" stroke-linecap="round"/><path d="M140 470.0 C430 417.1 705 451.2 1060 449.2 S1370 505.3 1460 490.0" fill="none" stroke="#b88a3a" stroke-width="3" opacity=".38" stroke-linecap="round"/><path d="M140 580.0 C430 575.2 705 540.1 1060 612.9 S1370 583.2 1460 600.0" fill="none" stroke="#2e6f94" stroke-width="4" opacity=".38" stroke-linecap="round"/><circle cx="552.0" cy="791.8" r="8" fill="#b88a3a" opacity=".26"/><circle cx="1416.0" cy="229.0" r="12" fill="#b88a3a" opacity=".26"/><circle cx="754.7" cy="426.7" r="11" fill="#b88a3a" opacity=".26"/><circle cx="882.7" cy="352.5" r="3" fill="#b88a3a" opacity=".26"/><circle cx="493.3" cy="676.5" r="12" fill="#b88a3a" opacity=".26"/><circle cx="861.3" cy="423.9" r="3" fill="#b88a3a" opacity=".26"/><circle cx="669.3" cy="657.3" r="9" fill="#b88a3a" opacity=".26"/><circle cx="813.3" cy="165.9" r="12" fill="#b88a3a" opacity=".26"/><circle cx="882.7" cy="152.2" r="8" fill="#b88a3a" opacity=".26"/><circle cx="200.0" cy="550.2" r="10" fill="#b88a3a" opacity=".26"/><circle cx="1186.7" cy="649.0" r="4" fill="#b88a3a" opacity=".26"/><circle cx="1464.0" cy="223.5" r="6" fill="#b88a3a" opacity=".26"/><circle cx="370.7" cy="316.9" r="12" fill="#b88a3a" opacity=".26"/><circle cx="754.7" cy="588.6" r="6" fill="#b88a3a" opacity=".26"/><circle cx="610.7" cy="511.8" r="3" fill="#b88a3a" opacity=".26"/><circle cx="1240.0" cy="371.8" r="12" fill="#b88a3a" opacity=".26"/><circle cx="749.3" cy="237.3" r="6" fill="#b88a3a" opacity=".26"/><circle cx="1202.7" cy="473.3" r="3" fill="#b88a3a" opacity=".26"/><circle cx="248.0" cy="371.8" r="6" fill="#b88a3a" opacity=".26"/><circle cx="221.3" cy="498.0" r="8" fill="#b88a3a" opacity=".26"/><circle cx="994.7" cy="338.8" r="3" fill="#b88a3a" opacity=".26"/><circle cx="1186.7" cy="322.4" r="5" fill="#b88a3a" opacity=".26"/>
</svg>